<?plantuml 1.2026.2beta3?><svg xmlns="http://www.w3.org/2000/svg" xmlns:xlink="http://www.w3.org/1999/xlink" contentStyleType="text/css" data-diagram-type="DESCRIPTION" height="357px" preserveAspectRatio="xMidYMin meet" style="width:1795px;height:357px;" version="1.1" viewBox="0 0 1795 357" width="1795px" zoomAndPan="magnify"><title>.NET Memory Model &#8212; Stack, Heap, GC Control Loop</title><defs/><g><g class="title" data-source-line="1"><text fill="#000000" font-family="Inter" font-size="14" font-weight="bold" lengthAdjust="spacing" textLength="413.6357" x="683.7598" y="22.9951">.NET Memory Model &#8212; Stack, Heap, GC Control Loop</text></g><!--entity APP--><g class="entity" data-qualified-name="APP" data-source-line="10" id="ent0002"><rect fill="#F1F1F1" height="52.5938" rx="5" ry="5" style="stroke:#181818;stroke-width:0.5;" width="138.5146" x="7" y="291.2969"/><text fill="#000000" font-family="Inter" font-size="14" lengthAdjust="spacing" textLength="118.5146" x="17" y="314.292">Application Code</text><text fill="#000000" font-family="Inter" font-size="14" lengthAdjust="spacing" textLength="78.3672" x="17" y="330.5889">(.NET / C#)</text></g><!--entity STACK--><g class="entity" data-qualified-name="STACK" data-source-line="12" id="ent0003"><rect fill="#F1F1F1" height="68.8906" rx="5" ry="5" style="stroke:#181818;stroke-width:0.5;" width="156.042" x="375.95" y="131.1469"/><text fill="#000000" font-family="Inter" font-size="14" lengthAdjust="spacing" textLength="38.7598" x="385.95" y="154.142">Stack</text><text fill="#000000" font-family="Inter" font-size="14" lengthAdjust="spacing" textLength="136.042" x="385.95" y="170.4389">(call frames, locals,</text><text fill="#000000" font-family="Inter" font-size="14" lengthAdjust="spacing" textLength="76.1797" x="385.95" y="186.7357">refs, Span)</text></g><!--entity HEAP--><g class="entity" data-qualified-name="HEAP" data-source-line="13" id="ent0004"><rect fill="#F1F1F1" height="68.8906" rx="5" ry="5" style="stroke:#181818;stroke-width:0.5;" width="144.3252" x="831.62" y="262.1469"/><text fill="#000000" font-family="Inter" font-size="14" lengthAdjust="spacing" textLength="105.5537" x="841.62" y="285.142">Managed Heap</text><text fill="#000000" font-family="Inter" font-size="14" lengthAdjust="spacing" textLength="124.3252" x="841.62" y="301.4389">SOH (Gen0&#8594;1&#8594;2)</text><text fill="#000000" font-family="Inter" font-size="14" lengthAdjust="spacing" textLength="29.3467" x="841.62" y="317.7357">LOH</text></g><!--entity GC--><g class="entity" data-qualified-name="GC" data-source-line="14" id="ent0005"><rect fill="#F1F1F1" height="52.5938" rx="5" ry="5" style="stroke:#181818;stroke-width:0.5;" width="163.6094" x="1205.14" y="196.2969"/><text fill="#000000" font-family="Inter" font-size="14" lengthAdjust="spacing" textLength="20.624" x="1215.14" y="219.292">GC</text><text fill="#000000" font-family="Inter" font-size="14" lengthAdjust="spacing" textLength="143.6094" x="1215.14" y="235.5889">(reclamation timing)</text></g><!--entity PRESSURE--><g class="entity" data-qualified-name="PRESSURE" data-source-line="15" id="ent0006"><rect fill="#F1F1F1" height="52.5938" rx="5" ry="5" style="stroke:#181818;stroke-width:0.5;" width="212.7051" x="797.43" y="44.2969"/><text fill="#000000" font-family="Inter" font-size="14" lengthAdjust="spacing" textLength="117.2979" x="807.43" y="67.292">System Pressure</text><text fill="#000000" font-family="Inter" font-size="14" lengthAdjust="spacing" textLength="192.7051" x="807.43" y="83.5889">CPU &#8226; Memory Limit &#8226; Load</text></g><!--entity OUT--><g class="entity" data-qualified-name="OUT" data-source-line="16" id="ent0007"><rect fill="#F1F1F1" height="52.5938" rx="5" ry="5" style="stroke:#181818;stroke-width:0.5;" width="222.4053" x="1566.75" y="299.2969"/><text fill="#000000" font-family="Inter" font-size="14" lengthAdjust="spacing" textLength="71.1895" x="1576.75" y="322.292">Outcomes</text><text fill="#000000" font-family="Inter" font-size="14" lengthAdjust="spacing" textLength="202.4053" x="1576.75" y="338.5889">Latency &#8226; Throughput &#8226; Cost</text></g><g class="entity" data-qualified-name="GMN17" data-source-line="32" id="ent0018"><path d="M294.51,240.1469 L294.51,289.0375 A5,5 0 0 0 299.51,294.0375 L608.427,294.0375 A5,5 0 0 0 613.427,289.0375 L613.427,245.1469 L603.427,235.1469 L457.97,235.1469 L453.97,200.4669 L449.97,235.1469 L299.51,235.1469 A5,5 0 0 0 294.51,240.1469" fill="#FEFFDD" style="stroke:#181818;stroke-width:0.5;"/><path d="M603.427,235.1469 L603.427,242.6469 A2.5,2.5 0 0 0 605.927,245.1469 L613.427,245.1469 L603.427,235.1469" fill="#FEFFDD" style="stroke:#181818;stroke-width:0.5;"/><text fill="#000000" font-family="Inter" font-size="14" lengthAdjust="spacing" textLength="265.7061" x="300.51" y="253.142">Stack is cheap, scoped, deterministic.</text><text fill="#000000" font-family="Inter" font-size="14" lengthAdjust="spacing" textLength="297.917" x="300.51" y="269.4389">Heap is shared, long-lived, and expensive.</text><text fill="#000000" font-family="Inter" font-size="14" lengthAdjust="spacing" textLength="253.4355" x="300.51" y="285.7357">Escaping references define GC cost.</text></g><!--link APP to STACK--><g class="link" data-entity-1="ent0002" data-entity-2="ent0003" data-link-type="dependency" data-source-line="18" id="lnk8"><path d="M130.53,290.9969 C174.07,269.7669 237.51,239.9769 294.51,217.5869 C320.66,207.3269 344.0297,199.2089 370.0697,190.8089" fill="none" id="APP-to-STACK" style="stroke:#181818;stroke-width:1;"/><polygon fill="#181818" points="375.78,188.9669,365.9866,187.9231,371.0215,190.5019,368.4426,195.5367,375.78,188.9669" style="stroke:#181818;stroke-width:1;"/><text fill="#000000" font-family="Inter" font-size="14" lengthAdjust="spacing" textLength="63.4785" x="188.3635" y="210.582">executes</text><text fill="#000000" font-family="Inter" font-size="14" lengthAdjust="spacing" textLength="87.1855" x="176.51" y="226.8789">push frames</text></g><!--link STACK to HEAP--><g class="link" data-entity-1="ent0003" data-entity-2="ent0004" data-link-type="dependency" data-source-line="19" id="lnk9"><path d="M532.23,190.9769 C566.24,201.9469 606.72,214.7269 643.43,225.5869 C706.66,244.2969 773.2714,262.4353 825.4814,276.3153" fill="none" id="STACK-to-HEAP" style="stroke:#181818;stroke-width:1;"/><polygon fill="#181818" points="831.28,277.8569,823.6098,271.6788,826.4478,276.5722,821.5544,279.4103,831.28,277.8569" style="stroke:#181818;stroke-width:1;"/><text fill="#000000" font-family="Inter" font-size="14" lengthAdjust="spacing" textLength="117.4824" x="646.8602" y="205.582">allocates objects</text><text fill="#000000" font-family="Inter" font-size="14" lengthAdjust="spacing" textLength="122.3428" x="644.43" y="221.8789">refs escape stack</text></g><!--link STACK to GC--><g class="link" data-entity-1="ent0003" data-entity-2="ent0005" data-link-type="dependency" data-source-line="20" id="lnk10"><path d="M532.4,164.1869 C664.78,162.8469 942.84,164.6269 1175.14,196.5869 C1184.83,197.9269 1189.0295,198.5254 1198.9995,200.5454" fill="none" id="STACK-to-GC" style="stroke:#181818;stroke-width:1;"/><polygon fill="#181818" points="1204.88,201.7369,1196.8535,196.0294,1199.9796,200.744,1195.2649,203.8701,1204.88,201.7369" style="stroke:#181818;stroke-width:1;"/><text fill="#000000" font-family="Inter" font-size="14" lengthAdjust="spacing" textLength="77.2871" x="865.6086" y="147.582">stack roots</text><text fill="#000000" font-family="Inter" font-size="14" lengthAdjust="spacing" textLength="101.9443" x="853.28" y="163.8789">(ref discovery)</text></g><!--link APP to HEAP--><g class="link" data-entity-1="ent0002" data-entity-2="ent0004" data-link-type="dependency" data-source-line="22" id="lnk11"><path d="M145.71,322.3369 C188.47,325.0669 244.67,328.2169 294.51,329.5869 C436.2,333.4969 471.92,337.6369 613.43,329.5869 C688.01,325.3469 766.9453,315.8296 825.3853,307.8396" fill="none" id="APP-to-HEAP" style="stroke:#181818;stroke-width:1;"/><polygon fill="#181818" points="831.33,307.0269,821.8711,304.2829,826.3761,307.7042,822.9548,312.2092,831.33,307.0269" style="stroke:#181818;stroke-width:1;"/><text fill="#000000" font-family="Inter" font-size="14" lengthAdjust="spacing" textLength="120.0938" x="393.97" y="325.582">direct allocations</text></g><!--link HEAP to GC--><g class="link" data-entity-1="ent0004" data-entity-2="ent0005" data-link-type="dependency" data-source-line="23" id="lnk12"><path d="M976.13,276.7769 C996.7,271.4369 1019.23,265.9469 1040.14,261.5869 C1094.71,250.2369 1150.7515,241.274 1198.8315,234.334" fill="none" id="HEAP-to-GC" style="stroke:#181818;stroke-width:1;"/><polygon fill="#181818" points="1204.77,233.4769,1195.2909,230.8037,1199.8213,234.1912,1196.4338,238.7216,1204.77,233.4769" style="stroke:#181818;stroke-width:1;"/><text fill="#000000" font-family="Inter" font-size="14" lengthAdjust="spacing" textLength="133.5537" x="1041.14" y="218.582">allocation pressure</text><text fill="#000000" font-family="Inter" font-size="14" lengthAdjust="spacing" textLength="85.6475" x="1065.0931" y="234.8789">survivorship</text></g><!--link GC to HEAP--><g class="link" data-entity-1="ent0005" data-entity-2="ent0004" data-link-type="dependency" data-source-line="26" id="lnk14"><path d="M1260.04,249.0169 C1239.17,268.3069 1207.98,292.8669 1175.14,303.5869 C1110.31,324.7569 1037.943,320.5509 982.333,312.1709" fill="none" id="GC-to-HEAP" style="stroke:#181818;stroke-width:1;"/><polygon fill="#181818" points="976.4,311.2769,984.7035,316.5733,981.3442,312.0219,985.8956,308.6626,976.4,311.2769" style="stroke:#181818;stroke-width:1;"/><text fill="#000000" font-family="Inter" font-size="14" lengthAdjust="spacing" textLength="107.96" x="1054.141" y="283.582">mark &amp; reclaim</text><text fill="#000000" font-family="Inter" font-size="14" lengthAdjust="spacing" textLength="127.9619" x="1044.14" y="299.8789">promote survivors</text></g><!--link PRESSURE to GC--><g class="link" data-entity-1="ent0006" data-entity-2="ent0005" data-link-type="dependency" data-source-line="24" id="lnk13"><path d="M1010.5,87.5469 C1061.85,98.2569 1123.47,114.8569 1175.14,139.5869 C1205.49,154.1169 1231.2342,173.6608 1252.4542,191.9408" fill="none" id="PRESSURE-to-GC" style="stroke:#181818;stroke-width:1;"/><polygon fill="#181818" points="1257,195.8569,1252.7919,186.9523,1253.2118,192.5935,1247.5705,193.0134,1257,195.8569" style="stroke:#181818;stroke-width:1;"/><text fill="#000000" font-family="Inter" font-size="14" lengthAdjust="spacing" textLength="103.0176" x="1056.14" y="75.582">less headroom</text><text fill="#000000" font-family="Inter" font-size="14" lengthAdjust="spacing" textLength="61.6465" x="1076.8255" y="91.8789">more GC</text></g><!--link HEAP to OUT--><g class="link" data-entity-1="ent0004" data-entity-2="ent0007" data-link-type="dependency" data-source-line="28" id="lnk15"><path d="M976.33,314.8669 C996.8,319.2869 1019.23,323.3769 1040.14,325.5869 C1223.88,345.0569 1433.1278,339.4119 1560.4278,332.9319" fill="none" id="HEAP-to-OUT" style="stroke:#181818;stroke-width:1;"/><polygon fill="#181818" points="1566.42,332.6269,1557.2283,329.0896,1561.4265,332.8811,1557.635,337.0792,1566.42,332.6269" style="stroke:#181818;stroke-width:1;"/><text fill="#000000" font-family="Inter" font-size="14" lengthAdjust="spacing" textLength="101.7051" x="1236.44" y="316.582">live graph size</text><text fill="#000000" font-family="Inter" font-size="14" lengthAdjust="spacing" textLength="87.1445" x="1243.7203" y="332.8789">(drives cost)</text></g><!--link GC to OUT--><g class="link" data-entity-1="ent0005" data-entity-2="ent0007" data-link-type="dependency" data-source-line="29" id="lnk16"><path d="M1369.02,244.0569 C1429.14,259.9769 1505.68,280.2407 1570.09,297.3007" fill="none" id="GC-to-OUT" style="stroke:#181818;stroke-width:1;"/><polygon fill="#181818" points="1575.89,298.8369,1568.2141,292.6659,1571.0567,297.5567,1566.1658,300.3992,1575.89,298.8369" style="stroke:#181818;stroke-width:1;"/><text fill="#000000" font-family="Inter" font-size="14" lengthAdjust="spacing" textLength="136.9512" x="1399.75" y="233.582">pauses + CPU steal</text><text fill="#000000" font-family="Inter" font-size="14" lengthAdjust="spacing" textLength="88.6484" x="1423.9014" y="249.8789">(tail latency)</text></g><?plantuml-src RLD1Rjim4Bpp5OiKA6BKSPEYfnmA6Afh5tLY8tPklZ3IIc93aGH9kNLFFVK1HL_Gf-Kb7KfneW0zs12vixkpCykeecQQNC-sTCMDzGUwiWLhUlZvXpPHvlTZMh1qOvfdb5aJlTMqjDO94UwLSTBBXku0gxnjJP5PRJr5Bqr0Y4qSe48j2_jDcOfAgGCF8ZTzgZViwU9y4FZ8fMnr_8I-rx9X-cmY-__7D-e7qyLxeRcC52rvLTMH2kKvZyeQ8TA7D1M6FPawfrKkqprcAdXdJZi1tbBsQdH2Cj1qlNwHqIa1M2wrfXAjEOn9Mnp3U6SybpXkd3HzzcOxpRuCqw-aaHKNdP8xirajw7JEvlpXr-yB_DwDTcQvMdIfYzbqFSoSP-YAivPDppUg1XBsVURP2uw74BcXjUSGMe-XilKjRFnxz7M9pDXTBAqikWBhczbcStip6vPPjJ6tc0-SP6IJ7xgKRGr_gzgrVONCXjXLMDrkXO1QT7RseP-RBec_Szx6LCAreNxKI_JHX4j30WOjeI1mPE--Wa3ebIGEkNHC8Ma-oC82NlQNvArDQ0XJmkAGsptxm-YPo6E3tlrZ7wWNH1TvglOS8VSa6_xtQczzg9KJHuMUSpHmLBCiGABP6KZBoGY1uA1r8_qzlQREEGMOyxQn4KCTYujdAj0mrLLxfifBLrF0BcEwmkCgK0wjHyVoFTR9DY3oXfB5S5rgmADKcdJl6RGmgTsTZT4sPCl7dUpsc1IArjsZXdIEYp4LZ8U5nL8XgdmYqfuc59wiJs5jJNMM2E9RcW86EpO1vucO9RFIeuONZ1UVWrV1fJ99bOxxH31I4fr_?></g></svg>